<?xml version="1.0" encoding="UTF-8"?>
<svg id="Layer_2" data-name="Layer 2" xmlns="http://www.w3.org/2000/svg" viewBox="0 0 397.15 397.15">
  <defs>
    <style>
      .cls-1 {
        fill: #2D3750;
        stroke-width: 0px;
      }
    </style>
  </defs>
  <circle class="cls-1" cx="200.76" cy="138.93" r="58.19"/>
  <path class="cls-1" d="M243.59,200.44c-12.14,8.47-26.9,13.48-42.83,13.48s-31.65-5.38-44.02-14.37c-29.1,7.86-50.54,34.36-50.54,65.95v42.31c0,4.76,3.86,8.61,8.61,8.61h167.54c4.76,0,8.61-3.85,8.61-8.61v-42.31c0-30.43-19.89-56.19-47.37-65.06Z"/>
  <path class="cls-1" d="M289.09,91.88c-10.27,0-19.83,2.99-27.89,8.13,7.23,11.22,11.44,24.58,11.44,38.92,0,17.21-6.07,33.02-16.15,45.39,8.92,7.19,20.25,11.5,32.6,11.5,28.7,0,51.97-23.27,51.97-51.97s-23.27-51.97-51.97-51.97Z"/>
  <path class="cls-1" d="M327.34,198.79c-10.85,7.56-24.03,12.04-38.25,12.04-1.86,0-3.71-.08-5.53-.23,1.92,2.13,3.73,4.36,5.42,6.68,9.85,13.53,15.67,30.22,15.67,48.22v36.86h57.3c4.25,0,7.69-3.44,7.69-7.69v-37.78c0-27.17-17.76-50.18-42.3-58.1Z"/>
  <path class="cls-1" d="M144.83,184.09c-9.97-12.34-15.97-28.06-15.97-45.17,0-14.25,4.15-27.54,11.3-38.71-8.13-5.27-17.81-8.34-28.22-8.34-28.7,0-51.97,23.27-51.97,51.97s23.27,51.97,51.97,51.97c12.48,0,23.92-4.4,32.88-11.73Z"/>
  <path class="cls-1" d="M92.5,265.5c0-18.71,6.28-35.97,16.85-49.76,1.3-1.7,2.67-3.34,4.1-4.93-.5.01-.99.03-1.49.03-14.7,0-28.27-4.81-39.31-12.84-25.99,7.02-45.14,30.69-45.14,58.89v37.78c0,4.25,3.44,7.69,7.69,7.69h57.3v-36.86Z"/>
</svg>