<?xml version="1.0" encoding="UTF-8"?>
<svg id="Layer_2" data-name="Layer 2" xmlns="http://www.w3.org/2000/svg" viewBox="0 0 397.15 397.15">
  <defs>
    <style>
      .cls-1 {
        fill: #70C169;
        stroke-width: 0px;
      }
    </style>
  </defs>
  <path class="cls-1" d="M198.94,28.28c-84.48,0-153.27,68.78-153.27,153.27s64.3,148.78,145.04,152.52c-2.24-4.49-3.74-9.72-4.49-14.95l-.75-11.21c-9.72-5.23-18.69-16.45-26.17-31.4-2.24-3.74-3.74-8.22-5.23-12.71h27.66l-2.24-23.18h-32.9c-3.74-14.95-5.98-30.65-6.73-47.85h34.39c-.75-8.22,1.5-15.7,5.23-23.18h-40.37c.75-17.2,2.99-32.9,6.73-47.85h41.12v38.88c2.99-2.99,5.98-5.23,9.72-6.73,4.49-2.24,8.97-3.74,13.46-4.49v-26.92h41.12c3.74,14.95,5.98,30.65,6.73,47.85h-.75l27.66,23.18h43.36c-.75,10.47-2.99,20.93-6.73,29.91l17.2,14.21s.75.75,1.5.75c7.48-17.94,11.21-36.63,11.21-56.82.75-85.23-68.04-153.27-152.52-153.27ZM83.06,121.74h39.63c-2.99,14.95-5.23,30.65-5.98,47.85h-47.85c2.24-17.2,6.73-33.64,14.21-47.85ZM83.06,239.87c-7.48-14.21-12.71-30.65-14.21-47.85h47.85c.75,17.2,2.99,32.9,5.98,47.85h-39.63ZM146.61,299.68c-18.69-8.22-35.89-20.93-48.6-36.63h30.65c5.23,14.21,11.21,26.92,17.94,36.63ZM129.41,98.56h-30.65c12.71-15.7,29.91-28.41,48.6-36.63-7.48,10.47-13.46,22.43-17.94,36.63ZM187.73,98.56h-33.64c1.5-4.49,3.74-8.97,5.23-12.71,8.22-16.45,17.94-27.66,28.41-32.15v44.86ZM210.16,98.56v-44.86c10.47,5.23,20.19,15.7,28.41,32.15,2.24,3.74,3.74,8.22,5.23,12.71h-33.64ZM251.28,61.92c18.69,8.22,35.89,20.93,48.6,36.63h-30.65c-5.23-14.21-11.21-26.17-17.94-36.63ZM328.29,169.59h-47.1c-.75-17.2-2.99-32.9-5.98-47.85h39.63c7.48,14.21,11.96,30.65,13.46,47.85Z"/>
  <path class="cls-1" d="M325.3,254.82l-96.45-79.25c-5.98-5.23-14.21-5.98-20.93-2.24-6.73,3.74-11.21,11.21-10.47,18.69l11.96,124.11c1.5,14.95,18.69,22.43,30.65,13.46l20.93-15.7,23.92,44.86c5.23,8.97,16.45,12.71,25.42,8.22,8.97-5.23,12.71-16.45,8.22-25.42l-23.92-44.86,24.67-8.97c14.21-5.23,17.2-23.18,5.98-32.9Z"/>
</svg>